<svg xmlns="http://www.w3.org/2000/svg" xmlns:xlink="http://www.w3.org/1999/xlink" width="200" height="150" viewBox="0 0 200 150">
	<defs>
		<style>
			.a{fill:#f2421b;}.b,.d{fill:#fff;}.b{font-size:36px;font-family:Poppins-ExtraBold, Poppins;font-weight:800;letter-spacing:0.03em;}.c{clip-path:url(#a);}
		</style>
		<clipPath id="a">
			<path class="a" d="M554.44,432.88c-6.96,12.93-33.72,46.6-45.63,61.41a7.622,7.622,0,0,1-5.86,2.8,7.219,7.219,0,0,1-5.74-2.8c-6.55-8.14-17.69-21.99-27.47-34.95-4.75-6.3-9.18-12.39-12.6-17.52a89.789,89.789,0,0,1-5.42-8.94c-13.77-27.28-2.78-63.29,25.53-77.62a57.2,57.2,0,0,1,76.83,25.3l.21.42C562.8,397.96,563.11,416.98,554.44,432.88Z" />
		</clipPath>
	</defs>
	<g transform="translate(-375 -152)">
	
		<g transform="translate(-7.806 -197.116)">
			<path class="a" d="M554.44,432.88c-6.96,12.93-33.72,46.6-45.63,61.41a7.622,7.622,0,0,1-5.86,2.8,7.219,7.219,0,0,1-5.74-2.8c-6.55-8.14-17.69-21.99-27.47-34.95-4.75-6.3-9.18-12.39-12.6-17.52a89.789,89.789,0,0,1-5.42-8.94c-13.77-27.28-2.78-63.29,25.53-77.62a57.2,57.2,0,0,1,76.83,25.3l.21.42C562.8,397.96,563.11,416.98,554.44,432.88Z" />
			<g class="c">
				<path class="d" d="M527.91,401.54l-18.24,18.4s-5.34,0-11.12-5.39c-5.34-5.83-5.34-11.21-5.34-11.21l18.24-18.4c-10.23-2.69-22.68.9-29.81,8.52-12,12.12-.89,26.02-4,29.16-7.1,7.17-14.46,13.89-20.5,19.2,3.42,5.13,7.85,11.22,12.6,17.52,5.37-6.31,12.68-14.62,20.8-22.81,3.12-3.14,17.35,7.18,28.92-4.48C527.02,424.42,530.58,411.86,527.91,401.54Z" />
			</g>
		</g>
	</g>
</svg>
